Coordinates
version=1
nRows=22
nColumns=24
inDegrees=yes

Units are S.I. units (second, meters, Newtons, ...)
Angles are in degrees.

endheader
time	pelvis_tilt	pelvis_list	pelvis_rotation	pelvis_tx	pelvis_ty	pelvis_tz	hip_flexion_r	hip_adduction_r	hip_rotation_r	knee_angle_r	ankle_angle_r	subtalar_angle_r	mtp_angle_r	hip_flexion_l	hip_adduction_l	hip_rotation_l	knee_angle_l	ankle_angle_l	subtalar_angle_l	mtp_angle_l	lumbar_extension	lumbar_bending	lumbar_rotation
      0.62500000	      3.74273630	      4.38808580	      0.86010938	     -0.82851680	      1.05342387	      0.30113425	     19.92467080	     -0.40076450	    -12.05132374	      1.35914282	     12.28403075	      1.91430152	      0.00274072	    -26.32248363	      8.85227054	     -6.08196440	     -1.78741250	      2.85871324	     10.10493712	      0.42168198	     -0.81479641	     -1.91336402	     -2.92215104
      0.62916667	      3.73574080	      4.37239837	      0.93770118	     -0.82197198	      1.05311093	      0.30093993	     19.85378357	     -0.35529389	    -11.97615996	      0.96731318	     12.35078049	      1.93806082	     -0.00064793	    -26.44200435	      8.77864345	     -6.06821447	     -2.21835596	      2.74984366	     10.03801970	      0.43226501	     -0.71093024	     -1.83929117	     -2.94053463
      0.63333333	      3.73937515	      4.34587186	      1.03377559	     -0.81536652	      1.05282825	      0.30071284	     19.75331017	     -0.30578290	    -11.87866288	      0.56738512	     12.49298928	      1.92063682	     -0.00445166	    -26.56095714	      8.68325536	     -6.08320731	     -2.66954645	      2.52104599	      9.95350658	      0.44727389	     -0.59949639	     -1.73140356	     -2.97247881
      0.63750000	      3.73506505	      4.21935547	      1.07325668	     -0.80844125	      1.05249684	      0.30054598	     19.62382635	     -0.12919231	    -11.67856515	      0.18197977	     12.88480381	      1.75585718	     -0.01803696	    -26.70599659	      8.50966721	     -6.13979271	     -3.02886217	      1.82998956	      9.75228481	      0.50389836	     -0.53803126	     -1.56132560	     -3.08097712
      0.64166667	      3.86479990	      4.18551715	      1.09914956	     -0.80189708	      1.05237731	      0.30043828	     19.34424119	     -0.04428088	    -11.14731871	     -0.15108024	     12.78907107	      1.16468025	     -0.08819315	    -26.93403208	      8.42653709	     -6.06726095	     -3.49082830	      1.36397967	      9.30593856	      0.81250100	     -0.63265142	     -1.51596062	     -3.26904357
      0.64583333	      3.85902318	      4.10935609	      1.22305725	     -0.79503377	      1.05215365	      0.30024962	     19.18614833	      0.05359744	    -10.91927077	     -0.50180753	     12.85769467	      1.00575774	     -0.10333951	    -26.99872007	      8.24972685	     -6.11928687	     -4.01745559	      0.93065483	      9.31848765	      0.90142952	     -0.55701254	     -1.36958646	     -3.30344082
      0.65000000	      3.89787405	      4.03185953	      1.28771025	     -0.78824415	      1.05196132	      0.30014984	     18.97786077	      0.17368363	    -10.54285594	     -0.83395066	     12.78136183	      0.67345717	     -0.12404089	    -27.09353514	      8.09178539	     -6.24471724	     -4.54857629	      0.38678867	      9.25969357	      1.03318540	     -0.50929158	     -1.24326824	     -3.36655867
      0.65416667	      3.93034991	      4.00973358	      1.36024711	     -0.78156061	      1.05180230	      0.30000169	     18.81155799	      0.21695479	    -10.37865851	     -1.22500947	     12.72627406	      0.63882264	     -0.12606306	    -27.14309477	      7.99133607	     -6.21501612	     -5.18593681	      0.26842015	      9.23218510	      1.05350881	     -0.42216682	     -1.16233766	     -3.37486330
      0.65833333	      4.09773326	      3.87849964	      1.33227528	     -0.77479016	      1.05176861	      0.30024384	     18.37601563	      0.45435946	     -9.31187046	     -1.36429697	     12.23338071	     -0.88232015	     -0.18075115	    -27.32755624	      7.78161592	     -6.52262136	     -5.75726343	     -0.51810222	      9.09053249	      1.57294568	     -0.56162772	     -1.04791030	     -3.52471846
      0.66250000	      4.10519901	      3.83617925	      1.45897998	     -0.76805325	      1.05167549	      0.30007185	     18.19711028	      0.50172786	     -9.16221874	     -1.69421081	     12.14665109	     -0.87726763	     -0.18241055	    -27.29861768	      7.62197986	     -6.51774329	     -6.48482684	     -0.70641390	      9.08404979	      1.60382493	     -0.48574698	     -0.93014776	     -3.52841032
      0.66666667	      4.10832150	      3.65955712	      1.53383205	     -0.76092362	      1.05157137	      0.30001199	     17.96946029	      0.71857038	     -8.92167267	     -1.93118620	     11.63495974	     -1.27962925	     -0.19736426	    -27.26899292	      7.33383568	     -6.79014788	     -7.13820301	     -1.67259108	      9.16098156	      1.79919580	     -0.35105422	     -0.64926249	     -3.59149075
      0.67083333	      4.16999931	      3.51674147	      1.58559216	     -0.75401058	      1.05157180	      0.30007831	     17.67278899	      0.91283745	     -8.47134711	     -2.12187562	     11.08630602	     -1.90211138	     -0.20949209	    -27.25550749	      7.07457823	     -7.05410252	     -7.88824205	     -2.38448269	      9.14091899	      2.10668649	     -0.33232732	     -0.46032362	     -3.65888655
      0.67500000	      4.20012575	      3.45535057	      1.70740018	     -0.74732065	      1.05161132	      0.29995127	     17.45272937	      0.97448130	     -8.28720171	     -2.41042584	     10.97691741	     -1.91305624	     -0.20903025	    -27.16157986	      6.87880857	     -7.06412019	     -8.75479426	     -2.54230613	      9.09904315	      2.14484763	     -0.28937199	     -0.36206854	     -3.66282451
      0.67916667	      4.23588957	      3.22985541	      1.76743988	     -0.74017925	      1.05165486	      0.29999831	     17.17239779	      1.24717544	     -8.04108475	     -2.57653972	     10.12110864	     -2.55019688	     -0.21551772	    -27.07849773	      6.51970210	     -7.43137877	     -9.55216606	     -3.60902662	      9.12051164	      2.41507589	     -0.21321210	     -0.05225123	     -3.74633462
      0.68333333	      4.27631165	      3.04864404	      1.82907136	     -0.73324092	      1.05174984	      0.30011832	     16.89137505	      1.47387494	     -7.63813008	     -2.74258293	      9.44094123	     -3.27740081	     -0.21030941	    -26.94922186	      6.19204923	     -7.73601008	    -10.46475148	     -4.33508876	      9.11300576	      2.78910262	     -0.18995462	      0.17756865	     -3.81080244
      0.68750000	      4.27085741	      2.89354836	      1.97773247	     -0.72634860	      1.05187777	      0.30008297	     16.66955892	      1.63322492	     -7.42486641	     -2.95828690	      9.16966035	     -3.40890599	     -0.20504263	    -26.73237334	      5.85694547	     -7.83930417	    -11.47213907	     -4.68152200	      9.06978844	      2.91995092	     -0.23076643	      0.29984181	     -3.82255774
      0.69166667	      4.34664927	      2.69500972	      1.98453973	     -0.71944172	      1.05205705	      0.30016961	     16.40788475	      1.86908509	     -7.29318854	     -3.21941795	      8.32220486	     -3.97723777	     -0.19507252	    -26.58776271	      5.53481996	     -8.17782110	    -12.44409393	     -5.69976023	      9.07280577	      3.24620820	     -0.08543718	      0.63786842	     -3.87956025
      0.69583333	      4.38438326	      2.50311198	      2.05016264	     -0.71259049	      1.05226090	      0.30028456	     16.17229652	      2.08782834	     -7.08389895	     -3.46383142	      7.68347352	     -4.50228512	     -0.17462907	    -26.35283191	      5.17789454	     -8.45597029	    -13.52585318	     -6.47817254	      9.01242412	      3.61212906	     -0.06896209	      0.88811755	     -3.91699163
      0.70000000	      4.43049558	      2.29359431	      2.12739593	     -0.70572294	      1.05252252	      0.30035606	     15.93147134	      2.31517137	     -6.91764181	     -3.72553562	      7.08031599	     -4.93654164	     -0.14738961	    -26.10329161	      4.79491270	     -8.68476818	    -14.64126695	     -7.26180130	      8.93566741	      3.99977779	     -0.03698300	      1.15662969	     -3.94450974
      0.70416667	      4.45726281	      2.09412597	      2.18060430	     -0.69892995	      1.05277632	      0.30045197	     15.74167449	      2.53019986	     -6.82847072	     -4.04127114	      6.52391086	     -5.26811407	     -0.11935003	    -25.79422328	      4.43202936	     -8.91387733	    -15.82530093	     -8.03352352	      8.82286897	      4.35083990	     -0.00461407	      1.41580744	     -3.96349228
      0.70833333	      4.48644908	      1.87668127	      2.24211414	     -0.69213628	      1.05306777	      0.30052972	     15.55377722	      2.75673824	     -6.77293596	     -4.37095997	      5.98215533	     -5.55008717	     -0.08948110	    -25.46028570	      4.04059531	     -9.12927877	    -17.04716310	     -8.86926506	      8.68398895	      4.68935536	      0.03714640	      1.70037150	     -3.97835413
      0.71250000	      4.53448560	      1.65590776	      2.29679746	     -0.68541451	      1.05341387	      0.30061305	     15.35790048	      2.98419574	     -6.74186657	     -4.71988483	      5.43775456	     -5.82077482	     -0.05515323	    -25.11223106	      3.64441355	     -9.31936041	    -18.31507412	     -9.74817115	      8.48991096	      5.04517731	      0.05172593	      1.99015535	     -3.98712776
